<svg width="2000" height="2000" viewBox="0 0 2000 2000" fill="none" xmlns="http://www.w3.org/2000/svg">
<g clip-path="url(#clip0_1166_3)">
<rect width="2000" height="2000" fill="#333333"/>
<path d="M2000 0H0V2000H2000V0Z" fill="#224A5C"/>
<path d="M1000.17 1662.17C1368.08 1662.17 1666.33 1364.14 1666.33 996.502C1666.33 628.864 1368.08 330.835 1000.17 330.835C632.253 330.835 334 628.864 334 996.502C334 1364.14 632.253 1662.17 1000.17 1662.17Z" fill="white"/>
<path d="M1000.24 1526.47C1291.42 1526.47 1527.47 1290.65 1527.47 999.737C1527.47 708.828 1291.42 473 1000.24 473C709.052 473 473 708.828 473 999.737C473 1290.65 709.052 1526.47 1000.24 1526.47Z" fill="#224A5C"/>
<path d="M1102.64 1178.25C1089.12 1178.75 1076.23 1179.12 1063.96 1179.37C1051.7 1179.63 1040.81 1179.75 1031.29 1179.75H1000.5C964.951 1179.75 931.655 1179.25 900.611 1178.25C874.075 1177.25 847.913 1175.87 822.128 1174.12C796.342 1172.37 777.691 1169.99 766.175 1166.98C753.157 1163.48 741.891 1156.97 732.378 1147.46C722.865 1137.94 716.356 1126.68 712.851 1113.66C709.847 1102.14 707.469 1088.12 705.716 1071.6C703.964 1055.08 702.587 1039.31 701.585 1024.28C700.584 1006.26 700.083 987.984 700.083 969.459C700.083 950.933 700.584 932.658 701.585 914.633C702.587 899.612 703.964 883.84 705.716 867.317C707.469 850.794 709.847 836.775 712.851 825.259C716.356 812.241 722.865 800.975 732.378 791.462C741.891 781.949 753.157 775.44 766.175 771.935C777.691 768.931 796.342 766.552 822.128 764.8C847.913 763.047 874.075 761.67 900.611 760.669C931.655 759.668 964.951 759.167 1000.5 759.167C1036.05 759.167 1069.35 759.668 1100.39 760.669C1126.93 761.67 1153.09 763.047 1178.87 764.8C1204.66 766.552 1223.31 768.931 1234.83 771.935C1247.84 775.44 1259.11 781.949 1268.62 791.462C1278.14 800.975 1284.64 812.241 1288.15 825.259C1291.15 836.775 1293.53 850.794 1295.28 867.317C1297.04 883.84 1298.41 899.612 1299.41 914.633C1300.42 932.658 1300.92 950.933 1300.92 969.459V982.226C1291.4 978.221 1281.64 975.091 1271.63 972.838C1261.61 970.585 1251.35 969.459 1240.83 969.459C1199.28 969.459 1163.85 984.104 1134.56 1013.39C1105.27 1042.69 1090.63 1078.11 1090.63 1119.67C1090.63 1130.18 1091.63 1140.32 1093.63 1150.08C1095.63 1159.85 1098.64 1169.24 1102.64 1178.25ZM940.417 1059.58L1096.63 969.459L940.417 879.334V1059.58ZM1210.79 1209.79V1149.71H1150.71V1089.63H1210.79V1029.54H1270.88V1089.63H1330.96V1149.71H1270.88V1209.79H1210.79Z" fill="#AABDCF"/>
</g>
<defs>
<clipPath id="clip0_1166_3">
<rect width="2000" height="2000" fill="white"/>
</clipPath>
</defs>
</svg>
